<svg width="631" height="447" viewBox="0 0 631 447" fill="none" xmlns="http://www.w3.org/2000/svg">
<g clip-path="url(#clip0_83_22)">
<path d="M114.5 318C96.5 318 87.5 307.167 87.5 285.5C87.5 278.167 88.8333 269.5 91.5 259.5C94.5 249.167 98.1667 239.667 102.5 231C97.8333 235.333 92 241 85 248C78 255 71.1667 262.667 64.5 271C51.5 287 41.5 300.833 34.5 312.5C30.8333 315.167 26.5 316.5 21.5 316.5C12.5 316.5 8 314.333 8 310C8 306.333 9.83333 299.5 13.5 289.5C17.1667 279.5 22.5 266.5 29.5 250.5C40.1667 226.167 51.3333 202.833 63 180.5C75 157.833 87.6667 136.167 101 115.5C141.333 51.1667 174.5 19 200.5 19C214.833 19 222 27.1667 222 43.5C222 64.8333 204.667 94.6667 170 133C162.667 141 152.667 151.333 140 164C127.667 176.333 112.167 191 93.5 208C89.1667 212 82.8333 217.5 74.5 224.5C66.5 231.5 58.3333 239.167 50 247.5C49 248.833 47.6667 251.5 46 255.5C44.3333 259.5 42.1667 264.667 39.5 271C34.1667 284 31.5 292.167 31.5 295.5C31.8333 295.833 32 296.333 32 297C35.6667 292.333 41 286.167 48 278.5C55.3333 270.5 63.1667 261.833 71.5 252.5C79.1667 244.167 86.5 236.333 93.5 229C100.5 221.667 106 216.667 110 214C113 212 115.667 211 118 211C124.667 211 128 214.5 128 221.5L116 247.5C108 264.833 104 278.5 104 288.5C104 300.167 109.667 306 121 306C130.333 306 140.333 301.167 151 291.5C158.667 284.833 166.5 275.833 174.5 264.5L185.5 249C186.167 248 187 247.5 188 247.5C189 247.5 189.833 248 190.5 249C191.5 250 191.667 251.167 191 252.5C190.333 254.5 188.833 257.167 186.5 260.5C175.167 277.167 163.5 291 151.5 302C139.5 312.667 127.167 318 114.5 318ZM56 230C67.6667 221.333 81.1667 209.833 96.5 195.5C112.167 181.167 128.667 163.833 146 143.5C185 98.5 204.5 66.5 204.5 47.5C204.5 36.5 200.833 31 193.5 31C175.5 31 150 58.6667 117 114C105.667 133 94.5 152.5 83.5 172.5C72.8333 192.5 63.6667 211.667 56 230ZM211.273 318C200.273 318 190.607 314.833 182.273 308.5C173.94 302.167 169.773 291.5 169.773 276.5C169.773 267.5 171.773 257.833 175.773 247.5C179.773 236.833 185.107 226.833 191.773 217.5C198.773 208.167 206.44 200.5 214.773 194.5C223.107 188.5 231.607 185.5 240.273 185.5C243.607 185.5 246.44 186.667 248.773 189C251.44 191.333 252.773 194.833 252.773 199.5C252.773 209.833 244.94 222.333 229.273 237C222.94 243 216.273 248.333 209.273 253C202.607 257.667 196.44 261 190.773 263C189.44 267.333 188.773 272.333 188.773 278C188.773 285.667 190.607 292.667 194.273 299C197.94 305.333 203.773 308.5 211.773 308.5C221.773 308.5 230.94 305.667 239.273 300C247.607 294.333 255.273 287.5 262.273 279.5C269.273 271.167 275.44 263.5 280.773 256.5C283.107 253.167 285.44 251.5 287.773 251.5C289.107 251.5 289.773 252.167 289.773 253.5C289.773 254.167 289.607 255 289.273 256C288.94 256.667 288.607 257.333 288.273 258C282.607 266 276.107 274.667 268.773 284C261.44 293.333 253.107 301.333 243.773 308C234.44 314.667 223.607 318 211.273 318ZM194.273 253C202.94 249.333 211.94 242.833 221.273 233.5C232.273 222.833 237.773 213.5 237.773 205.5C237.773 201.5 235.773 199.5 231.773 199.5C226.44 199.5 219.107 207.167 209.773 222.5C201.44 235.167 196.273 245.333 194.273 253ZM313.871 321.5C295.871 321.5 284.704 310.667 280.371 289C280.038 286 279.538 283 278.871 280C278.538 277 278.371 274 278.371 271C278.371 256 281.038 240.667 286.371 225C292.038 209.333 298.871 194 306.871 179C314.871 164 322.204 150.167 328.871 137.5C335.204 125.833 342.204 114.333 349.871 103C357.871 91.3333 365.704 80.6667 373.371 71C381.038 61.3333 387.538 53.5 392.871 47.5C401.538 37.8333 409.871 31 417.871 27C425.871 22.6666 433.038 20.5 439.371 20.5C443.704 20.5 447.538 22.6666 450.871 27C454.538 31.6666 456.371 36.1667 456.371 40.5C456.371 63.5 434.871 102 391.871 156C374.871 177.333 358.538 196.667 342.871 214C327.204 231 312.038 246.333 297.371 260C297.038 262.667 296.704 265.5 296.371 268.5C296.371 271.167 296.371 273.833 296.371 276.5C296.371 287.833 298.204 296.5 301.871 302.5C305.538 308.167 312.038 311 321.371 311C330.704 311 341.538 305.667 353.871 295C366.538 284 379.538 268.667 392.871 249C393.871 247.333 395.038 246.333 396.371 246C398.371 246 399.371 247.167 399.371 249.5C399.371 251.167 399.038 252.5 398.371 253.5C393.704 261.5 388.371 269.167 382.371 276.5C376.704 283.833 370.204 290.833 362.871 297.5C354.538 304.833 346.204 310.667 337.871 315C329.871 319.333 321.871 321.5 313.871 321.5ZM298.371 249C307.704 241 318.704 229.5 331.371 214.5C344.371 199.167 358.038 181.333 372.371 161C404.704 116.333 424.038 84 430.371 64C433.371 54.3333 434.871 47.1667 434.871 42.5C434.871 36.1667 432.704 33 428.371 33C418.704 33 406.871 42.3333 392.871 61C384.871 71.6667 375.538 85.3333 364.871 102C354.204 118.333 343.871 136.167 333.871 155.5C322.204 177.833 313.871 196.333 308.871 211C304.204 225.667 300.704 238.333 298.371 249ZM421.781 321.5C403.781 321.5 392.615 310.667 388.281 289C387.948 286 387.448 283 386.781 280C386.448 277 386.281 274 386.281 271C386.281 256 388.948 240.667 394.281 225C399.948 209.333 406.781 194 414.781 179C422.781 164 430.115 150.167 436.781 137.5C443.115 125.833 450.115 114.333 457.781 103C465.781 91.3333 473.615 80.6667 481.281 71C488.948 61.3333 495.448 53.5 500.781 47.5C509.448 37.8333 517.781 31 525.781 27C533.781 22.6666 540.948 20.5 547.281 20.5C551.615 20.5 555.448 22.6666 558.781 27C562.448 31.6666 564.281 36.1667 564.281 40.5C564.281 63.5 542.781 102 499.781 156C482.781 177.333 466.448 196.667 450.781 214C435.115 231 419.948 246.333 405.281 260C404.948 262.667 404.615 265.5 404.281 268.5C404.281 271.167 404.281 273.833 404.281 276.5C404.281 287.833 406.115 296.5 409.781 302.5C413.448 308.167 419.948 311 429.281 311C438.615 311 449.448 305.667 461.781 295C474.448 284 487.448 268.667 500.781 249C501.781 247.333 502.948 246.333 504.281 246C506.281 246 507.281 247.167 507.281 249.5C507.281 251.167 506.948 252.5 506.281 253.5C501.615 261.5 496.281 269.167 490.281 276.5C484.615 283.833 478.115 290.833 470.781 297.5C462.448 304.833 454.115 310.667 445.781 315C437.781 319.333 429.781 321.5 421.781 321.5ZM406.281 249C415.615 241 426.615 229.5 439.281 214.5C452.281 199.167 465.948 181.333 480.281 161C512.615 116.333 531.948 84 538.281 64C541.281 54.3333 542.781 47.1667 542.781 42.5C542.781 36.1667 540.615 33 536.281 33C526.615 33 514.781 42.3333 500.781 61C492.781 71.6667 483.448 85.3333 472.781 102C462.115 118.333 451.781 136.167 441.781 155.5C430.115 177.833 421.781 196.333 416.781 211C412.115 225.667 408.615 238.333 406.281 249ZM500.691 321C489.025 321 483.191 314.167 483.191 300.5C483.191 281.5 491.525 259.167 508.191 233.5C507.858 231.833 507.525 230 507.191 228C507.191 226 507.191 224.167 507.191 222.5C507.191 210.5 511.191 198.833 519.191 187.5C527.191 176.167 537.025 170.5 548.691 170.5C558.691 170.5 565.358 174 568.691 181C572.358 188 574.191 195.833 574.191 204.5C574.191 211.833 573.358 218.833 571.691 225.5C570.025 232.5 567.525 240.333 564.191 249C560.858 257.667 556.691 266.833 551.691 276.5C556.691 279.5 562.358 281 568.691 281C574.358 281 579.691 280.333 584.691 279C589.691 277.333 594.358 274.333 598.691 270C603.025 265.667 606.358 261.833 608.691 258.5C611.358 255.167 612.525 253.667 612.191 254C612.858 253.333 613.525 253 614.191 253C615.525 253 616.525 253.833 617.191 255.5C618.191 257.167 618.025 258.833 616.691 260.5C611.358 268.167 604.358 275 595.691 281C587.358 286.667 578.191 289.5 568.191 289.5C560.525 289.5 553.858 287.833 548.191 284.5C532.858 308.833 517.025 321 500.691 321ZM545.191 272C549.525 261.333 552.858 252.167 555.191 244.5C557.525 236.833 558.691 229.667 558.691 223V219C558.691 210 557.191 201.667 554.191 194C551.191 186 546.858 182 541.191 182C533.525 182 527.525 186.667 523.191 196C520.191 202.333 518.691 209.333 518.691 217V220C524.025 213.667 529.358 210.5 534.691 210.5C539.691 210.5 543.358 212.167 545.691 215.5C546.691 216.833 547.191 218 547.191 219C547.191 221 545.191 222 541.191 222C535.191 222 528.858 228.333 522.191 241C526.858 254 534.525 264.333 545.191 272ZM508.691 309C513.025 309 519.191 305 527.191 297C530.525 293.667 533.358 290.5 535.691 287.5C538.025 284.5 539.858 281.667 541.191 279C529.858 271.333 521.525 262.833 516.191 253.5C506.191 274.5 501.191 289.667 501.191 299C501.191 305.667 503.691 309 508.691 309Z" fill="white"/>
<path d="M7.16841 372.327V343.447H17.4884C21.0084 343.447 22.9684 343.807 24.7684 345.567C26.0084 346.767 26.8084 348.447 26.8084 350.727C26.8084 355.487 23.3284 356.727 21.9284 357.247C23.6084 357.727 27.6884 358.927 27.6884 364.447C27.6884 368.367 25.1684 370.367 24.2084 371.007C22.2084 372.327 19.9684 372.327 17.6884 372.327H7.16841ZM11.0484 346.727V355.647H16.6484C18.0084 355.647 22.6484 355.647 22.6484 351.087C22.6484 346.727 19.0084 346.727 16.8084 346.727H11.0484ZM11.0484 359.087V369.087H17.8884C21.0484 369.087 23.5684 367.407 23.5684 364.087C23.5684 361.207 21.5684 359.087 18.0484 359.087H11.0484ZM35.7681 343.447H39.7681V361.327C39.7681 364.407 40.4481 365.687 41.0481 366.527C42.8481 368.927 45.6481 369.367 47.6481 369.367C55.4481 369.367 55.4481 363.247 55.4481 361.167V343.447H59.3281V361.247C59.3281 362.807 59.2881 366.047 56.9681 368.927C54.1281 372.487 49.7281 372.927 47.6481 372.927C44.9281 372.927 40.1281 372.167 37.4481 368.327C36.5681 367.047 35.7681 365.367 35.7681 361.047V343.447ZM68.7009 372.327V343.447H72.7009V372.327H68.7009ZM82.0337 372.327V343.447H85.9937V368.767H99.4337V372.327H82.0337ZM106.06 372.327V343.447H114.42C118.3 343.447 122.86 343.447 126.06 347.207C128.62 350.207 129.62 354.167 129.62 358.127C129.62 364.367 127.02 368.207 124.82 369.967C121.98 372.327 118.42 372.327 114.18 372.327H106.06ZM110.06 346.767V369.047H113.98C116.74 369.047 119.62 368.887 121.54 367.447C125.22 364.687 125.34 359.967 125.34 358.287C125.34 357.207 125.26 352.287 122.54 349.287C120.7 347.247 118.38 346.767 114.86 346.767H110.06ZM150.913 372.327V360.967L139.633 343.447H144.593L153.113 357.607L161.753 343.447H166.233L154.953 361.167V372.327H150.913ZM168.791 358.087C168.791 354.807 169.351 349.967 172.511 346.567C175.511 343.327 179.471 342.687 182.151 342.687C190.151 342.687 195.191 347.807 195.191 357.607C195.191 365.287 192.111 373.007 181.831 373.007C171.991 373.007 168.791 366.007 168.791 358.087ZM172.991 357.847C172.991 361.007 173.551 364.487 175.551 366.967C177.191 369.007 179.671 369.607 181.951 369.607C184.311 369.607 186.671 368.967 188.351 366.967C190.711 364.087 190.951 359.527 190.951 357.567C190.951 351.007 188.791 346.047 182.191 346.047C174.871 346.047 172.991 351.927 172.991 357.847ZM203.284 343.447H207.284V361.327C207.284 364.407 207.964 365.687 208.564 366.527C210.364 368.927 213.164 369.367 215.164 369.367C222.964 369.367 222.964 363.247 222.964 361.167V343.447H226.844V361.247C226.844 362.807 226.804 366.047 224.484 368.927C221.644 372.487 217.244 372.927 215.164 372.927C212.444 372.927 207.644 372.167 204.964 368.327C204.084 367.047 203.284 365.367 203.284 361.047V343.447ZM236.137 372.327V343.447H246.457C247.937 343.447 250.977 343.447 253.097 344.807C255.257 346.167 256.297 348.367 256.297 350.687C256.297 352.727 255.537 354.527 254.257 355.807C253.017 357.047 251.737 357.447 250.857 357.687C253.617 358.407 254.857 359.647 255.257 363.247C255.657 366.647 255.937 369.127 257.057 372.327H252.777C252.137 370.407 251.737 366.887 251.457 364.687C250.977 360.487 249.977 359.287 245.137 359.287H240.097V372.327H236.137ZM240.017 346.807V355.887H246.337C246.777 355.887 249.057 355.887 250.137 355.247C250.697 354.927 252.097 353.887 252.097 351.487C252.097 346.807 247.937 346.807 246.337 346.807H240.017ZM278.309 372.327V343.447H295.509V346.847H282.389V355.847H294.749V359.207H282.389V372.327H278.309ZM302.456 343.447H306.456V361.327C306.456 364.407 307.136 365.687 307.736 366.527C309.536 368.927 312.336 369.367 314.336 369.367C322.136 369.367 322.136 363.247 322.136 361.167V343.447H326.016V361.247C326.016 362.807 325.976 366.047 323.656 368.927C320.816 372.487 316.416 372.927 314.336 372.927C311.616 372.927 306.816 372.167 304.136 368.327C303.256 367.047 302.456 365.367 302.456 361.047V343.447ZM346.348 372.327H342.388V346.847H332.708V343.447H356.028V346.847H346.348V372.327ZM362.042 343.447H366.042V361.327C366.042 364.407 366.722 365.687 367.322 366.527C369.122 368.927 371.922 369.367 373.922 369.367C381.722 369.367 381.722 363.247 381.722 361.167V343.447H385.602V361.247C385.602 362.807 385.562 366.047 383.242 368.927C380.402 372.487 376.002 372.927 373.922 372.927C371.202 372.927 366.402 372.167 363.722 368.327C362.842 367.047 362.042 365.367 362.042 361.047V343.447ZM394.894 372.327V343.447H405.214C406.694 343.447 409.734 343.447 411.854 344.807C414.014 346.167 415.054 348.367 415.054 350.687C415.054 352.727 414.294 354.527 413.014 355.807C411.774 357.047 410.494 357.447 409.614 357.687C412.374 358.407 413.614 359.647 414.014 363.247C414.414 366.647 414.694 369.127 415.814 372.327H411.534C410.894 370.407 410.494 366.887 410.214 364.687C409.734 360.487 408.734 359.287 403.894 359.287H398.854V372.327H394.894ZM398.774 346.807V355.887H405.094C405.534 355.887 407.814 355.887 408.894 355.247C409.454 354.927 410.854 353.887 410.854 351.487C410.854 346.807 406.694 346.807 405.094 346.807H398.774ZM423.174 372.327V343.447H441.294V346.847H427.174V355.847H440.614V359.207H427.174V368.807H441.614V372.327H423.174Z" fill="white"/>
<path d="M3.68841 387.365H7.96841L14.2084 411.125L21.0884 387.365H26.0484L32.5684 411.325L39.1284 387.365H43.0484L34.4884 416.245H30.0484L23.3684 391.565L16.2084 416.245H11.8884L3.68841 387.365ZM48.8884 416.245V387.365H52.8884V416.245H48.8884ZM72.9812 416.245H69.0212V390.765H59.3412V387.365H82.6612V390.765H72.9812V416.245ZM88.4743 387.365H92.4743V399.765H106.194V387.365H110.194V416.245H106.194V403.205H92.4743V416.245H88.4743V387.365ZM132.754 416.245V387.365H138.314L152.514 411.245V387.365H156.194V416.245H151.074L136.394 391.725V416.245H132.754ZM164.447 402.005C164.447 398.725 165.007 393.885 168.167 390.485C171.167 387.245 175.127 386.605 177.807 386.605C185.807 386.605 190.847 391.725 190.847 401.525C190.847 409.205 187.767 416.925 177.487 416.925C167.647 416.925 164.447 409.925 164.447 402.005ZM168.647 401.765C168.647 404.925 169.207 408.405 171.207 410.885C172.847 412.925 175.327 413.525 177.607 413.525C179.967 413.525 182.327 412.885 184.007 410.885C186.367 408.005 186.607 403.445 186.607 401.485C186.607 394.925 184.447 389.965 177.847 389.965C170.527 389.965 168.647 395.845 168.647 401.765ZM199.02 416.245V387.365H209.34C212.86 387.365 214.82 387.725 216.62 389.485C217.86 390.685 218.66 392.365 218.66 394.645C218.66 399.405 215.18 400.645 213.78 401.165C215.46 401.645 219.54 402.845 219.54 408.365C219.54 412.285 217.02 414.285 216.06 414.925C214.06 416.245 211.82 416.245 209.54 416.245H199.02ZM202.9 390.645V399.565H208.5C209.86 399.565 214.5 399.565 214.5 395.005C214.5 390.645 210.86 390.645 208.66 390.645H202.9ZM202.9 403.005V413.005H209.74C212.9 413.005 215.42 411.325 215.42 408.005C215.42 405.125 213.42 403.005 209.9 403.005H202.9ZM227.62 387.365H231.62V405.245C231.62 408.325 232.3 409.605 232.9 410.445C234.7 412.845 237.5 413.285 239.5 413.285C247.3 413.285 247.3 407.165 247.3 405.085V387.365H251.18V405.165C251.18 406.725 251.14 409.965 248.82 412.845C245.98 416.405 241.58 416.845 239.5 416.845C236.78 416.845 231.98 416.085 229.3 412.245C228.42 410.965 227.62 409.285 227.62 404.965V387.365ZM284.472 394.565H280.112C279.672 391.885 277.512 390.045 273.592 390.045C270.872 390.045 268.592 390.765 267.072 392.485C264.552 395.285 263.992 399.045 263.992 401.765C263.992 404.205 264.512 408.325 266.632 410.845C268.512 413.005 271.432 413.685 274.312 413.685C277.592 413.685 279.672 413.045 280.592 412.765V404.205H273.992V400.885H284.592V415.125C282.912 415.685 279.232 416.885 274.312 416.885C268.992 416.885 265.872 415.365 263.832 413.285C260.992 410.405 259.792 406.365 259.792 402.285C259.792 399.405 260.512 392.605 265.992 388.925C268.832 387.005 272.592 386.885 274.032 386.885C276.312 386.885 279.792 387.165 282.552 389.965C284.272 391.765 284.392 393.445 284.472 394.565ZM304.645 416.245H300.685V390.765H291.005V387.365H314.325V390.765H304.645V416.245ZM319.658 416.245V387.365H337.778V390.765H323.658V399.765H337.098V403.125H323.658V412.725H338.098V416.245H319.658ZM368.272 395.165H363.992C363.832 394.165 363.312 390.165 357.752 390.165C350.792 390.165 349.552 397.285 349.552 402.085C349.552 407.525 351.112 413.405 357.712 413.405C359.472 413.405 361.152 412.965 362.392 411.685C363.432 410.565 363.672 409.325 363.792 408.645H368.192C367.592 414.325 362.352 416.685 357.392 416.685C347.232 416.685 345.272 407.725 345.272 402.125C345.272 396.045 347.632 386.965 357.912 386.965C361.992 386.965 367.752 388.605 368.272 395.165ZM375.271 387.365H379.271V399.765H392.991V387.365H396.991V416.245H392.991V403.205H379.271V416.245H375.271V387.365Z" fill="white"/>
</g>
<defs>
<clipPath id="clip0_83_22">
<rect width="631" height="447" fill="white"/>
</clipPath>
</defs>
</svg>
